<svg width="554" height="378" viewBox="0 0 554 378" fill="none" xmlns="http://www.w3.org/2000/svg">
<path d="M314.067 285.747C380.029 260.679 435.67 227.192 472.303 193.299C490.619 176.353 504.203 159.287 511.941 143.101C519.68 126.914 521.589 111.564 516.473 98.1024C511.357 84.6404 499.734 74.4334 483.198 67.4719C466.663 60.5111 445.174 56.775 420.226 56.2712C370.329 55.2634 306.492 67.1841 240.53 92.2527C174.568 117.321 118.927 150.808 82.2935 184.702C63.9777 201.647 50.3938 218.713 42.6558 234.899C34.9171 251.086 33.0073 266.436 38.1235 279.898C43.2397 293.36 54.8623 303.567 71.3985 310.528C87.9333 317.489 109.423 321.225 134.37 321.729C184.268 322.737 248.105 310.816 314.067 285.747Z" stroke="#D2A187"/>
<path d="M46 271L47.3578 290.131L65.9722 285.511L48.1969 292.714L58.3435 308.989L46 294.31L33.6565 308.989L43.8031 292.714L26.0278 285.511L44.6422 290.131L46 271Z" fill="#CC5D2F"/>
<path d="M485 45.9999L486.358 65.1311L504.972 60.5106L487.197 67.7138L497.343 83.9893L485 69.3099L472.657 83.9893L482.803 67.7138L465.028 60.5106L483.642 65.1311L485 45.9999Z" fill="#CC5D2F"/>
</svg>
