<svg width="260" height="118" viewBox="0 0 260 118" fill="none" xmlns="http://www.w3.org/2000/svg">
<path d="M13.3008 47.9102C13.3008 44.5898 13.2422 41.6992 13.125 39.2383C13.0469 36.7383 12.9297 34.5898 12.7734 32.793C12.6562 30.9961 12.4805 29.4922 12.2461 28.2812C12.0508 27.0703 11.8359 26.0547 11.6016 25.2344V25H25.1367V25.2344C24.9023 26.0547 24.6875 27.0703 24.4922 28.2812C24.2969 29.4922 24.1211 30.9961 23.9648 32.793C23.8086 34.5898 23.6914 36.7383 23.6133 39.2383C23.5352 41.6992 23.4961 44.5898 23.4961 47.9102V78.9062C23.4961 84.1797 22.9102 88.75 21.7383 92.6172C20.6055 96.4844 19.0234 99.9023 16.9922 102.871C15 105.84 12.6367 108.496 9.90234 110.84C7.20703 113.223 4.29688 115.527 1.17188 117.754L0.0585938 116.348C2.75391 113.887 4.96094 111.328 6.67969 108.672C8.39844 106.016 9.74609 103.164 10.7227 100.117C11.6992 97.1094 12.3633 93.8477 12.7148 90.332C13.1055 86.8555 13.3008 83.0469 13.3008 78.9062V47.9102ZM12.0703 7.24609C12.0703 6.38672 12.2266 5.58594 12.5391 4.84375C12.8906 4.0625 13.3398 3.39844 13.8867 2.85156C14.4336 2.26562 15.0781 1.81641 15.8203 1.50391C16.6016 1.15234 17.4414 0.976562 18.3398 0.976562C19.2383 0.976562 20.0586 1.15234 20.8008 1.50391C21.582 1.81641 22.2461 2.26562 22.793 2.85156C23.3789 3.39844 23.8281 4.0625 24.1406 4.84375C24.4922 5.58594 24.668 6.38672 24.668 7.24609C24.668 9.04297 24.0625 10.5469 22.8516 11.7578C21.6406 12.9688 20.1367 13.5742 18.3398 13.5742C17.4414 13.5742 16.6016 13.418 15.8203 13.1055C15.0781 12.7539 14.4336 12.3047 13.8867 11.7578C13.3398 11.1719 12.8906 10.5078 12.5391 9.76562C12.2266 8.98438 12.0703 8.14453 12.0703 7.24609ZM51.5039 64.4922C51.5039 69.6484 52.5195 73.4375 54.5508 75.8594C56.6211 78.2812 59.3945 79.4922 62.8711 79.4922C64.1211 79.4922 65.5273 79.2383 67.0898 78.7305C68.6523 78.1836 70.2539 77.4805 71.8945 76.6211C73.5742 75.7227 75.2344 74.6875 76.875 73.5156C78.5547 72.3438 80.0977 71.0938 81.5039 69.7656C81.582 68.6328 81.6211 67.4414 81.6211 66.1914C81.6211 64.9023 81.6211 63.5352 81.6211 62.0898V47.9102C81.6211 44.5898 81.5625 41.6992 81.4453 39.2383C81.3672 36.7383 81.25 34.5898 81.0938 32.793C80.9766 30.9961 80.8008 29.4922 80.5664 28.2812C80.3711 27.0703 80.1562 26.0547 79.9219 25.2344V25H93.457V25.2344C93.2227 26.0547 93.0078 27.0703 92.8125 28.2812C92.6172 29.4922 92.4414 30.9961 92.2852 32.793C92.1289 34.5898 92.0117 36.7383 91.9336 39.2383C91.8555 41.6992 91.8164 44.5898 91.8164 47.9102V62.0898C91.8164 65.4102 91.8555 68.3203 91.9336 70.8203C92.0117 73.2812 92.1289 75.4102 92.2852 77.207C92.4414 79.0039 92.6172 80.5078 92.8125 81.7188C93.0078 82.9297 93.2227 83.9453 93.457 84.7656V85H79.9219V84.7656C80.1562 83.7891 80.3906 82.5391 80.625 81.0156C80.8984 79.4922 81.0938 77.5 81.2109 75.0391C79.6094 76.4062 77.8711 77.7539 75.9961 79.082C74.1602 80.4102 72.2266 81.6016 70.1953 82.6562C68.2031 83.7109 66.1719 84.5508 64.1016 85.1758C62.0703 85.8398 60.0586 86.1719 58.0664 86.1719C55.0195 86.1719 52.4219 85.6445 50.2734 84.5898C48.1641 83.5352 46.4258 82.1484 45.0586 80.4297C43.7305 78.7109 42.7539 76.7578 42.1289 74.5703C41.543 72.3828 41.25 70.1367 41.25 67.832V47.9102C41.25 44.5898 41.2109 41.6992 41.1328 39.2383C41.0547 36.7383 40.9375 34.5898 40.7812 32.793C40.625 30.9961 40.4492 29.4922 40.2539 28.2812C40.0586 27.0703 39.8438 26.0547 39.6094 25.2344V25H53.1445V25.2344C52.9102 26.0547 52.6953 27.0703 52.5 28.2812C52.3047 29.4922 52.1289 30.9961 51.9727 32.793C51.8164 34.5898 51.6992 36.7383 51.6211 39.2383C51.543 41.6992 51.5039 44.5898 51.5039 47.9102V64.4922ZM150.176 45.5078C150.176 40.3516 149.141 36.5625 147.07 34.1406C145 31.7188 142.227 30.5078 138.75 30.5078C137.5 30.5078 136.094 30.7812 134.531 31.3281C132.969 31.8359 131.367 32.5391 129.727 33.4375C128.086 34.2969 126.445 35.3125 124.805 36.4844C123.164 37.6562 121.621 38.9062 120.176 40.2344L120.059 47.9102V62.0898C120.059 65.4102 120.098 68.3203 120.176 70.8203C120.254 73.2812 120.371 75.4102 120.527 77.207C120.684 79.0039 120.859 80.5078 121.055 81.7188C121.25 82.9297 121.465 83.9453 121.699 84.7656V85H108.164V84.7656C108.398 83.9453 108.613 82.9297 108.809 81.7188C109.043 80.5078 109.219 79.0039 109.336 77.207C109.492 75.4102 109.609 73.2812 109.688 70.8203C109.805 68.3203 109.863 65.4102 109.863 62.0898V47.9102C109.863 44.5898 109.805 41.6992 109.688 39.2383C109.609 36.7383 109.492 34.5898 109.336 32.793C109.219 30.9961 109.043 29.4922 108.809 28.2812C108.613 27.0703 108.398 26.0547 108.164 25.2344V25H121.699V25.2344C121.387 26.2109 121.133 27.4609 120.938 28.9844C120.781 30.4688 120.605 32.4219 120.41 34.8438C122.012 33.5156 123.73 32.1875 125.566 30.8594C127.441 29.5312 129.375 28.3594 131.367 27.3438C133.359 26.2891 135.391 25.4492 137.461 24.8242C139.531 24.1602 141.562 23.8281 143.555 23.8281C146.602 23.8281 149.18 24.3555 151.289 25.4102C153.438 26.4648 155.176 27.8516 156.504 29.5703C157.871 31.2891 158.848 33.2617 159.434 35.4883C160.059 37.6758 160.371 39.9023 160.371 42.168V62.0898C160.371 65.4102 160.41 68.3203 160.488 70.8203C160.566 73.2812 160.684 75.4102 160.84 77.207C160.996 79.0039 161.172 80.5078 161.367 81.7188C161.562 82.9297 161.777 83.9453 162.012 84.7656V85H148.477V84.7656C148.711 83.9453 148.926 82.9297 149.121 81.7188C149.355 80.5078 149.531 79.0039 149.648 77.207C149.805 75.4102 149.922 73.2812 150 70.8203C150.117 68.3203 150.176 65.4102 150.176 62.0898V45.5078ZM173.145 54.8828C173.145 50.4688 173.965 46.3867 175.605 42.6367C177.246 38.8477 179.492 35.5664 182.344 32.793C185.234 30.0195 188.633 27.8516 192.539 26.2891C196.445 24.7266 200.645 23.9453 205.137 23.9453C209.551 23.9453 213.691 24.6875 217.559 26.1719C221.465 27.6172 224.863 29.6875 227.754 32.3828C230.645 35.0781 232.91 38.3594 234.551 42.2266C236.23 46.0938 237.07 50.4297 237.07 55.2344C237.07 59.2578 236.367 63.125 234.961 66.8359C233.555 70.5469 231.484 73.8281 228.75 76.6797C226.016 79.5312 222.656 81.8164 218.672 83.5352C214.727 85.2148 210.176 86.0547 205.02 86.0547C200.645 86.0547 196.523 85.332 192.656 83.8867C188.789 82.4414 185.41 80.3711 182.52 77.6758C179.629 74.9805 177.344 71.7188 175.664 67.8906C173.984 64.0234 173.145 59.6875 173.145 54.8828ZM206.367 81.7773C209.141 81.7773 211.68 81.2305 213.984 80.1367C216.328 79.043 218.34 77.4609 220.02 75.3906C221.699 73.3203 223.008 70.8008 223.945 67.832C224.883 64.8633 225.352 61.5039 225.352 57.7539C225.352 53.5352 224.902 49.6289 224.004 46.0352C223.105 42.4023 221.758 39.2773 219.961 36.6602C218.203 34.0039 215.977 31.9336 213.281 30.4492C210.586 28.9648 207.441 28.2227 203.848 28.2227C201.074 28.2227 198.535 28.7695 196.23 29.8633C193.926 30.918 191.914 32.4609 190.195 34.4922C188.516 36.5234 187.207 39.0234 186.27 41.9922C185.332 44.9219 184.863 48.2617 184.863 52.0117C184.863 56.2305 185.312 60.1562 186.211 63.7891C187.148 67.4219 188.516 70.5859 190.312 73.2812C192.109 75.9375 194.336 78.0273 196.992 79.5508C199.688 81.0352 202.812 81.7773 206.367 81.7773ZM247.207 79.8438C247.207 78.9844 247.363 78.1836 247.676 77.4414C248.027 76.6602 248.477 75.9961 249.023 75.4492C249.609 74.8633 250.273 74.4141 251.016 74.1016C251.797 73.75 252.617 73.5742 253.477 73.5742C254.375 73.5742 255.195 73.75 255.938 74.1016C256.719 74.4141 257.383 74.8633 257.93 75.4492C258.516 75.9961 258.965 76.6602 259.277 77.4414C259.629 78.1836 259.805 78.9844 259.805 79.8438C259.805 81.6406 259.199 83.1445 257.988 84.3555C256.777 85.5664 255.273 86.1719 253.477 86.1719C252.617 86.1719 251.797 85.9961 251.016 85.6445C250.273 85.332 249.609 84.9023 249.023 84.3555C248.477 83.7695 248.027 83.1055 247.676 82.3633C247.363 81.582 247.207 80.7422 247.207 79.8438Z" fill="white"/>
</svg>
